# xmcd
#
# Track frame offsets:
#	180
#	15322
#	29858
#	45919
#	62568
#	81223
#	99201
#	123689
#	138987
#
# Disc length: 2067 seconds
#
# Revision: 0
# Processed by: cddbd v1.4PL0 Copyright (c) Steve Scherf et al.
# Submitted via: audiograbber 1.81.03
#
DISCID=6c081109
DTITLE=Techno Sistem - Welcome To The Dance World
DYEAR=1900
DGENRE=Dance
TTITLE0=Celebrate
TTITLE1=Milha
TTITLE2=Tahe The Beat
TTITLE3=Istina
TTITLE4=Dance Machine
TTITLE5=Probudi me
TTITLE6=U nocima dugim
TTITLE7=C` mom C` mon
TTITLE8=Tahe The Beat (Eng.)
EXTD=
EXTT0=
EXTT1=
EXTT2=
EXTT3=
EXTT4=
EXTT5=
EXTT6=
EXTT7=
EXTT8=
PLAYORDER=
